<svg width="48" height="48" viewBox="0 0 48 48" fill="none" xmlns="http://www.w3.org/2000/svg">
<path fill-rule="evenodd" clip-rule="evenodd" d="M46 48L41.9167 44H24V48H44H46ZM44 40.4414V4V0H48V4V44V44.3598L44 40.4414ZM48 47.9792L47.9796 48H48V47.9792ZM6.79942 4L2.71608 0H4H24V4H6.79942ZM0 2.93878L4 6.85714V44V48H0V44V4V2.93878Z" fill="#91D7E3"/>
<path fill-rule="evenodd" clip-rule="evenodd" d="M34.3676 30.0464C35.4053 28.2709 36 26.2049 36 24C36 17.3726 30.6274 12 24 12C21.7066 12 19.5635 12.6433 17.7413 13.7594L20.7367 16.6937C21.7332 16.2479 22.8377 16 24 16C28.4183 16 32 19.5817 32 24C32 25.1038 31.7764 26.1555 31.3721 27.112L34.3676 30.0464ZM17.5908 19.2114C16.5917 20.5465 16 22.2042 16 24C16 28.4183 19.5817 32 24 32C25.8551 32 27.5627 31.3686 28.9196 30.309L31.7939 33.1247C29.6971 34.9174 26.975 36 24 36C17.3726 36 12 30.6274 12 24C12 21.1139 13.0188 18.4658 14.7165 16.3957L17.5908 19.2114Z" fill="#ED8796"/>
<path fill-rule="evenodd" clip-rule="evenodd" d="M48 44.2817V44V4V0H44V4V40.3634L48 44.2817ZM41.9963 44H24V48H44H46.0797L41.9963 44Z" fill="#EED49F"/>
</svg>
