<svg width="555" height="555" viewBox="0 0 555 555" fill="none" xmlns="http://www.w3.org/2000/svg">
<path fill-rule="evenodd" clip-rule="evenodd" d="M554.5 536.559V531L554.5 24V4.17368e-06L530.63 0L530.629 47H530.5L530.5 512.559L554.5 536.559ZM515 531L278 531L278 555L530.5 555H539L515 531Z" fill="#A6DA95"/>
<path fill-rule="evenodd" clip-rule="evenodd" d="M372.348 357.407C383.217 343.209 391.133 326.399 394.982 307.711C408.629 241.447 365.975 176.666 299.711 163.018C263.546 155.57 227.822 164.892 200.611 185.67L217.771 202.83C239.302 187.468 266.922 180.769 294.87 186.525C348.152 197.499 382.449 249.588 371.475 302.87C368.61 316.778 362.945 329.393 355.187 340.246L372.348 357.407ZM200.055 219.055C189.6 231.286 182 246.256 178.525 263.13C167.551 316.412 201.848 368.501 255.13 379.475C286.074 385.848 316.616 376.952 338.936 357.936L355.951 374.951C328.075 399.454 289.441 411.045 250.289 402.982C184.025 389.334 141.371 324.553 155.018 258.289C159.477 236.638 169.395 217.509 183.039 202.039L200.055 219.055Z" fill="#ED8796"/>
<path fill-rule="evenodd" clip-rule="evenodd" d="M41.9045 24L277 24V2.26694e-05L24 5.31478e-07L17.9261 0L41.9045 24ZM4.70772e-05 16.0142L4.63797e-05 24L2.09626e-06 531L0 555H24.0002L24 531L24 40.0358L4.70772e-05 16.0142Z" fill="#91D7E3"/>
</svg>
