<svg width="32" height="28" viewBox="0 0 32 28" fill="none" xmlns="http://www.w3.org/2000/svg">
<path d="M0.206543 16.4708C0.206543 15.0991 1.30947 13.9871 2.66999 13.9871H29.3789C30.7395 13.9871 31.8424 15.0991 31.8424 16.4708V16.4708C31.8424 17.8425 30.7395 18.9546 29.3789 18.9546H2.66999C1.30947 18.9546 0.206543 17.8425 0.206543 16.4708V16.4708Z" fill="#CDD6F4"/>
<path fill-rule="evenodd" clip-rule="evenodd" d="M29.3789 14.2485H2.66999C1.45268 14.2485 0.465853 15.2435 0.465853 16.4708C0.465853 17.6982 1.45268 18.6931 2.66999 18.6931H29.3789C30.5962 18.6931 31.5831 17.6982 31.5831 16.4708C31.5831 15.2435 30.5962 14.2485 29.3789 14.2485ZM2.66999 13.9871C1.30947 13.9871 0.206543 15.0991 0.206543 16.4708C0.206543 17.8425 1.30947 18.9546 2.66999 18.9546H29.3789C30.7395 18.9546 31.8424 17.8425 31.8424 16.4708C31.8424 15.0991 30.7395 13.9871 29.3789 13.9871H2.66999Z" fill="black"/>
<path d="M1.24411 19.7397H30.8055V23.6615C30.8055 25.683 29.1801 27.3217 27.1751 27.3217H4.87446C2.86947 27.3217 1.24411 25.683 1.24411 23.6615V19.7397Z" fill="#CDD6F4"/>
<path fill-rule="evenodd" clip-rule="evenodd" d="M30.5462 20.0012H1.50342V23.6615C1.50342 25.5386 3.01268 27.0603 4.87446 27.0603H27.1751C29.0369 27.0603 30.5462 25.5386 30.5462 23.6615V20.0012ZM1.24411 19.7397V23.6615C1.24411 25.683 2.86947 27.3217 4.87446 27.3217H27.1751C29.1801 27.3217 30.8055 25.683 30.8055 23.6615V19.7397H1.24411Z" fill="black"/>
<path d="M0.110994 20.7863C-0.44666 19.3468 1.20094 18.1719 2.73372 18.1719H29.1235C30.6574 18.1719 32.3114 19.3483 31.7469 20.7863V20.7863C30.9922 22.7086 28.8678 22.5103 26.82 22.6165C24.4369 22.74 23.366 20.6198 20.9855 20.7863C19.0344 20.9228 18.272 22.534 16.3179 22.6165C14.1262 22.709 13.1949 20.847 11.002 20.7863C8.6167 20.7204 7.55157 22.72 5.16755 22.6165C3.07141 22.5255 0.874318 22.7568 0.110994 20.7863V20.7863Z" fill="#CDD6F4"/>
<path fill-rule="evenodd" clip-rule="evenodd" d="M29.1235 18.4333H2.73372C2.02602 18.4333 1.29303 18.7067 0.809765 19.1356C0.333251 19.5584 0.12406 20.1015 0.352534 20.6912C0.693026 21.5702 1.34333 21.9631 2.19485 22.1508C2.84512 22.2941 3.57797 22.3116 4.35273 22.3301C4.62351 22.3366 4.89942 22.3431 5.1787 22.3553C6.29028 22.4035 7.09436 21.9665 7.95924 21.4864L7.99155 21.4685C8.8407 20.9971 9.7535 20.4903 11.0091 20.525C12.1414 20.5563 12.9598 21.0409 13.7117 21.4861C13.7384 21.5019 13.765 21.5176 13.7915 21.5333C14.5719 21.9945 15.2941 22.398 16.3071 22.3553C17.2083 22.3172 17.8351 21.9311 18.5148 21.5003C18.5274 21.4923 18.5401 21.4843 18.5528 21.4763C19.2171 21.055 19.9386 20.5975 20.9675 20.5255C22.2438 20.4362 23.1691 20.9655 24.0286 21.4573L24.0297 21.4579C24.8981 21.9546 25.7 22.4127 26.8067 22.3554C27.0738 22.3415 27.3373 22.3327 27.5959 22.3241C28.3569 22.2987 29.0744 22.2748 29.7103 22.1276C30.5367 21.9364 31.1691 21.5475 31.5058 20.6901C31.7368 20.1017 31.5283 19.5593 31.0509 19.1362C30.5667 18.7071 29.8318 18.4333 29.1235 18.4333ZM2.73372 18.1719C1.20093 18.1719 -0.44666 19.3468 0.110994 20.7863C0.777528 22.5069 2.53728 22.5487 4.36843 22.5923C4.63434 22.5986 4.90176 22.6049 5.16755 22.6165C6.36734 22.6686 7.23309 22.188 8.10119 21.7061C8.95803 21.2305 9.81715 20.7536 11.002 20.7863C12.0666 20.8158 12.8338 21.2698 13.5923 21.7186C14.3962 22.1942 15.1902 22.6641 16.3179 22.6165C17.307 22.5747 17.9908 22.1413 18.678 21.7057C19.3484 21.2807 20.022 20.8537 20.9855 20.7863C22.1839 20.7025 23.0505 21.1983 23.9196 21.6955C24.7768 22.1859 25.6366 22.6778 26.82 22.6165C27.0742 22.6033 27.3296 22.5948 27.5834 22.5864C29.3741 22.5269 31.0859 22.47 31.7469 20.7863C32.3114 19.3483 30.6574 18.1719 29.1235 18.1719H2.73372Z" fill="black"/>
<path d="M20.5305 19.1926C20.2191 19.6005 19.6091 19.6005 19.2977 19.1926L15.9377 14.792C15.5439 14.2762 15.9086 13.5292 16.5542 13.5292L23.274 13.5292C23.9196 13.5292 24.2843 14.2762 23.8905 14.792L20.5305 19.1926Z" fill="#CDD6F4"/>
<path fill-rule="evenodd" clip-rule="evenodd" d="M16.1432 14.6325L19.5031 19.0332C19.7107 19.3051 20.1175 19.3051 20.3251 19.0332L23.685 14.6325C23.9475 14.2887 23.7044 13.7907 23.274 13.7907L16.5542 13.7907C16.1238 13.7907 15.8807 14.2887 16.1432 14.6325ZM19.2977 19.1926C19.6091 19.6005 20.2191 19.6005 20.5305 19.1926L23.8905 14.792C24.2843 14.2762 23.9196 13.5292 23.274 13.5292L16.5542 13.5292C15.9086 13.5292 15.5439 14.2762 15.9377 14.792L19.2977 19.1926Z" fill="black"/>
<path d="M1.24411 12.8698C1.24411 12.1874 1.79279 11.6342 2.46962 11.6342H29.58C30.2568 11.6342 30.8055 12.1874 30.8055 12.8698V12.8698C30.8055 13.5522 30.2568 14.1054 29.58 14.1054H8.7055C7.73538 14.1054 6.94894 14.8983 6.94894 15.8764V16.4709C6.94894 17.1207 6.4265 17.6474 5.78204 17.6474V17.6474C5.13758 17.6474 4.61515 17.1207 4.61515 16.4709V15.8048C4.61515 14.8662 3.86051 14.1054 2.92963 14.1054H2.46962C1.79279 14.1054 1.24411 13.5522 1.24411 12.8698V12.8698Z" fill="#CDD6F4"/>
<path fill-rule="evenodd" clip-rule="evenodd" d="M29.58 11.8956H2.46962C1.936 11.8956 1.50342 12.3317 1.50342 12.8698C1.50342 13.4078 1.936 13.8439 2.46962 13.8439H2.92963C4.00373 13.8439 4.87446 14.7218 4.87446 15.8048V16.4709C4.87446 16.9763 5.2808 17.386 5.78204 17.386C6.28329 17.386 6.68963 16.9763 6.68963 16.4709V15.8764C6.68963 14.7539 7.59217 13.8439 8.7055 13.8439H29.58C30.1136 13.8439 30.5462 13.4078 30.5462 12.8698C30.5462 12.3317 30.1136 11.8956 29.58 11.8956ZM2.46962 11.6342C1.79279 11.6342 1.24411 12.1874 1.24411 12.8698C1.24411 13.5522 1.79279 14.1054 2.46962 14.1054H2.92963C3.86051 14.1054 4.61515 14.8662 4.61515 15.8048V16.4709C4.61515 17.1207 5.13758 17.6474 5.78204 17.6474C6.4265 17.6474 6.94894 17.1207 6.94894 16.4709V15.8764C6.94894 14.8983 7.73538 14.1054 8.7055 14.1054H29.58C30.2568 14.1054 30.8055 13.5522 30.8055 12.8698C30.8055 12.1874 30.2568 11.6342 29.58 11.6342H2.46962Z" fill="black"/>
<path d="M14.9875 0.130005C4.06 0.130005 1.79736 8.18095 1.34966 10.8124C1.27394 11.2574 1.6219 11.6337 2.06977 11.6337H30.0275C30.4571 11.6337 30.7977 11.2837 30.7419 10.8542C30.4058 8.26735 28.2912 0.130005 14.9875 0.130005Z" fill="#CDD6F4"/>
<path fill-rule="evenodd" clip-rule="evenodd" d="M4.33681 4.57012C2.37057 6.88667 1.69896 9.53116 1.4771 10.8352C1.4164 11.192 1.69324 11.5037 2.06943 11.5037H30.0271C30.3878 11.5037 30.6574 11.214 30.6129 10.8719C30.4469 9.59389 29.841 6.94331 27.6334 4.61304C25.4289 2.28608 21.6109 0.261447 14.9871 0.261447C9.55954 0.261447 6.29863 2.25877 4.33681 4.57012ZM4.13979 4.40013C6.15308 2.02815 9.48721 0 14.9871 0C21.667 0 25.5582 2.04404 27.8209 4.43245C30.0805 6.81755 30.7 9.52905 30.8701 10.8379C30.9372 11.3547 30.5257 11.7651 30.0271 11.7651H2.06943C1.54987 11.7651 1.13079 11.3243 1.22152 10.791C1.44736 9.4636 2.13092 6.76691 4.13979 4.40013Z" fill="black"/>
<path fill-rule="evenodd" clip-rule="evenodd" d="M10.8385 7.97531C10.8385 7.83092 10.9546 7.71387 11.0978 7.71387H13.6909C13.8342 7.71387 13.9503 7.83092 13.9503 7.97531C13.9503 8.11971 13.8342 8.23676 13.6909 8.23676H11.0978C10.9546 8.23676 10.8385 8.11971 10.8385 7.97531Z" fill="black"/>
<path fill-rule="evenodd" clip-rule="evenodd" d="M14.4686 4.83676C14.4686 4.69237 14.5847 4.57532 14.7279 4.57532H17.321C17.4642 4.57532 17.5803 4.69237 17.5803 4.83676C17.5803 4.98116 17.4642 5.09821 17.321 5.09821H14.7279C14.5847 5.09821 14.4686 4.98116 14.4686 4.83676Z" fill="black"/>
<path fill-rule="evenodd" clip-rule="evenodd" d="M18.3583 7.97531C18.3583 7.83092 18.4744 7.71387 18.6176 7.71387H21.2108C21.354 7.71387 21.4701 7.83092 21.4701 7.97531C21.4701 8.11971 21.354 8.23676 21.2108 8.23676H18.6176C18.4744 8.23676 18.3583 8.11971 18.3583 7.97531Z" fill="black"/>
<path fill-rule="evenodd" clip-rule="evenodd" d="M21.4698 4.83676C21.4698 4.69237 21.5859 4.57532 21.7291 4.57532H24.3222C24.4654 4.57532 24.5815 4.69237 24.5815 4.83676C24.5815 4.98116 24.4654 5.09821 24.3222 5.09821H21.7291C21.5859 5.09821 21.4698 4.98116 21.4698 4.83676Z" fill="black"/>
</svg>
